<svg width="544" height="451" viewBox="0 0 544 451" fill="none" xmlns="http://www.w3.org/2000/svg">
<path d="M462.4 0.0499878H81.6C36.5544 0.0948365 0.048698 33.715 0 75.2V292.3C0.048698 333.785 36.5544 367.405 81.6 367.45H106.803L90.8482 440.928C90.162 444.088 91.5122 447.325 94.3102 449.254C97.1081 451.182 100.862 451.456 103.957 449.955L274.24 367.45H462.4C507.446 367.405 543.951 333.785 544 292.3V75.2C543.951 33.715 507.446 0.0948365 462.4 0.0499878ZM525.867 292.3C525.827 324.567 497.436 350.713 462.4 350.75H272C270.526 350.75 269.078 351.08 267.777 351.712L112.364 427.046L126.752 360.772C127.296 358.313 126.615 355.761 124.892 353.82C123.17 351.875 120.589 350.75 117.867 350.75H81.6C46.5641 350.713 18.1732 324.567 18.1333 292.3V75.2C18.1732 42.9334 46.5641 16.7867 81.6 16.75H462.4C497.436 16.7867 525.827 42.9334 525.867 75.2V292.3Z" fill="black"/>
</svg>
