<svg width="25" height="15" viewBox="0 0 25 15" fill="none" xmlns="http://www.w3.org/2000/svg">
<path d="M17.1236 8.29944C17.9858 8.29944 18.9515 8.41384 20.0206 8.64266C21.0898 8.87147 22.0641 9.23757 22.9435 9.74096C23.823 10.2444 24.2627 10.8316 24.2627 11.5028V14.1571H0V11.5028C0 10.8316 0.439729 10.2444 1.31919 9.74096C2.19865 9.23757 3.17295 8.87147 4.24209 8.64266C5.31124 8.41384 6.29416 8.29944 7.19087 8.29944C8.9153 8.29944 10.5707 8.63503 12.1572 9.30622C13.7437 8.63503 15.3991 8.29944 17.1236 8.29944ZM12.6746 12.6927V11.5028C12.6746 11.1977 12.071 10.8316 10.8639 10.4045C9.6568 9.9774 8.42383 9.76384 7.165 9.76384C5.90617 9.76384 4.6732 9.9774 3.4661 10.4045C2.259 10.8316 1.65545 11.1977 1.65545 11.5028V12.6927H12.6746ZM22.6073 12.6927V11.5028C22.6073 11.1977 22.0037 10.8316 20.7966 10.4045C19.5895 9.9774 18.3652 9.76384 17.1236 9.76384C16.0199 9.76384 14.8991 9.94689 13.7609 10.313C14.1403 10.6791 14.33 11.0757 14.33 11.5028V12.6927H22.6073ZM7.19087 7.33842C6.12172 7.33842 5.20777 7.00283 4.44903 6.33164C3.69028 5.66045 3.3109 4.85198 3.3109 3.90622C3.3109 2.96045 3.69028 2.15961 4.44903 1.50367C5.20777 0.847742 6.12172 0.519775 7.19087 0.519775C8.26001 0.519775 9.16534 0.847742 9.90684 1.50367C10.6483 2.15961 11.0191 2.96045 11.0191 3.90622C11.0191 4.85198 10.6483 5.66045 9.90684 6.33164C9.16534 7.00283 8.26001 7.33842 7.19087 7.33842ZM7.165 1.98418C6.56145 1.98418 6.04412 2.17486 5.61302 2.55622C5.18191 2.93757 4.96635 3.3952 4.96635 3.9291C4.96635 4.463 5.18191 4.92062 5.61302 5.30198C6.04412 5.68333 6.56145 5.87401 7.165 5.87401C7.76855 5.87401 8.28588 5.68333 8.71699 5.30198C9.14809 4.92062 9.36365 4.463 9.36365 3.9291C9.36365 3.3952 9.14809 2.93757 8.71699 2.55622C8.28588 2.17486 7.76855 1.98418 7.165 1.98418ZM17.1236 7.33842C16.0544 7.33842 15.1405 7.00283 14.3817 6.33164C13.623 5.66045 13.2436 4.85198 13.2436 3.90622C13.2436 2.96045 13.623 2.15961 14.3817 1.50367C15.1405 0.847742 16.0544 0.519775 17.1236 0.519775C18.1927 0.519775 19.098 0.847742 19.8396 1.50367C20.5811 2.15961 20.9518 2.96045 20.9518 3.90622C20.9518 4.85198 20.5811 5.66045 19.8396 6.33164C19.098 7.00283 18.1927 7.33842 17.1236 7.33842ZM17.0977 1.98418C16.4942 1.98418 15.9768 2.17486 15.5457 2.55622C15.1146 2.93757 14.8991 3.3952 14.8991 3.9291C14.8991 4.463 15.1146 4.92062 15.5457 5.30198C15.9768 5.68333 16.4942 5.87401 17.0977 5.87401C17.7013 5.87401 18.2186 5.68333 18.6497 5.30198C19.0808 4.92062 19.2964 4.463 19.2964 3.9291C19.2964 3.3952 19.0808 2.93757 18.6497 2.55622C18.2186 2.17486 17.7013 1.98418 17.0977 1.98418Z" fill="black"/>
</svg>
