<svg width="58" height="49" viewBox="0 0 58 49" fill="none" xmlns="http://www.w3.org/2000/svg">
<g clip-path="url(#clip0)">
<path d="M24.1667 49C10.875 49 0 39.8125 0 28.5834C0 17.3542 10.875 8.16669 24.1667 8.16669C37.4583 8.16669 48.3333 17.3542 48.3333 28.5834C48.3333 39.8125 37.4583 49 24.1667 49ZM24.1667 10.2084C12.0833 10.2084 2.41667 18.375 2.41667 28.5834C2.41667 38.7917 12.0833 46.9584 24.1667 46.9584C36.25 46.9584 45.9167 38.7917 45.9167 28.5834C45.9167 18.375 36.25 10.2084 24.1667 10.2084Z" fill="black"/>
<path d="M24.1673 41.8542C15.4673 41.8542 8.45898 35.9333 8.45898 28.5833C8.45898 21.2333 15.4673 15.3125 24.1673 15.3125C32.8673 15.3125 39.8756 21.2333 39.8756 28.5833C39.8756 35.9333 32.8673 41.8542 24.1673 41.8542ZM24.1673 17.3542C16.9173 17.3542 10.8757 22.4583 10.8757 28.5833C10.8757 34.7083 16.9173 39.8125 24.1673 39.8125C31.4173 39.8125 37.459 34.7083 37.459 28.5833C37.459 22.4583 31.4173 17.3542 24.1673 17.3542Z" fill="black"/>
<path d="M24.166 34.7083C20.0577 34.7083 16.916 32.0541 16.916 28.5833C16.916 25.1125 20.0577 22.4583 24.166 22.4583C28.2744 22.4583 31.416 25.1125 31.416 28.5833C31.416 32.0541 28.2744 34.7083 24.166 34.7083ZM24.166 24.5C21.5077 24.5 19.3327 26.3375 19.3327 28.5833C19.3327 30.8291 21.5077 32.6666 24.166 32.6666C26.8244 32.6666 28.9994 30.8291 28.9994 28.5833C28.9994 26.3375 26.8244 24.5 24.166 24.5Z" fill="black"/>
<path d="M24.1671 29.6042C23.9254 29.6042 23.4421 29.6042 23.2004 29.4C22.7171 28.9917 22.7171 28.3792 23.2004 27.9709L41.3254 12.6584C41.8087 12.25 42.5337 12.25 43.017 12.6584C43.5004 13.0667 43.5004 13.6792 43.017 14.0875L24.8921 29.4C24.8921 29.6042 24.4087 29.6042 24.1671 29.6042Z" fill="black"/>
<path d="M48.334 14.2917H42.2923C41.5673 14.2917 41.084 13.8833 41.084 13.2708V8.16667C41.084 7.9625 41.3257 7.55417 41.3257 7.35L49.784 0.204167C50.2673 0 50.7507 0 51.234 0C51.7173 0.204167 51.959 0.6125 51.959 1.02083V5.10417H56.7923C57.2757 5.10417 57.759 5.30833 58.0007 5.71667C58.0007 6.125 58.0007 6.53333 57.759 6.94167L49.3007 14.0875C49.059 14.0875 48.5757 14.2917 48.334 14.2917ZM43.5007 12.25H47.8507L53.8923 7.14583H50.7507C50.0257 7.14583 49.5423 6.7375 49.5423 6.125V3.47083L43.5007 8.575V12.25Z" fill="black"/>
</g>
<defs>
<clipPath id="clip0">
<rect width="58" height="49" fill="white"/>
</clipPath>
</defs>
</svg>
