<svg width="25" height="22" viewBox="0 0 25 22" fill="none" xmlns="http://www.w3.org/2000/svg">
<path d="M23.7891 6.79755C22.9523 6.05732 21.5907 6.05737 20.7536 6.79771C20.4961 7.02565 18.8523 8.48083 18.6012 8.70315V3.68828C18.6012 3.18119 18.3779 2.70447 17.9725 2.34592L15.949 0.556031C15.5437 0.197438 15.0047 0 14.4314 0H2.14629C0.962825 0 0 0.851639 0 1.89844V19.7016C0 20.7484 0.962825 21.6 2.14629 21.6H16.4549C17.6383 21.6 18.6012 20.7484 18.6012 19.7016V14.0751L23.7891 9.48236C24.6279 8.74045 24.6281 7.53954 23.7891 6.79755ZM14.3086 1.26562C14.4438 1.26562 14.7043 1.24491 14.9373 1.45095L16.9608 3.24084C17.1878 3.4417 17.1704 3.66179 17.1704 3.79688H14.3086V1.26562ZM17.1703 19.7016C17.1703 20.0505 16.8494 20.3344 16.4549 20.3344H2.14629C1.7518 20.3344 1.43086 20.0505 1.43086 19.7016V1.89844C1.43086 1.5495 1.7518 1.26562 2.14629 1.26562H12.8777V4.42969C12.8777 4.77917 13.1981 5.0625 13.5932 5.0625H17.1703V9.96988C17.1703 9.96988 15.0596 11.8384 15.0595 11.8385L14.0482 12.733C13.9697 12.8025 13.9105 12.8872 13.8754 12.9804L12.8636 15.6652C12.7779 15.8926 12.8448 16.1433 13.0364 16.3128C13.2283 16.4825 13.5118 16.5414 13.7685 16.4657L16.8039 15.5707C16.9092 15.5397 17.005 15.4873 17.0835 15.4178L17.1703 15.3411V19.7016ZM15.5658 13.1805L16.5776 14.0754L16.1911 14.4173L14.6735 14.8647L15.1794 13.5223L15.5658 13.1805ZM17.5892 13.1803L16.5774 12.2854C17.1162 11.8085 19.509 9.69013 20.0165 9.24088L21.0282 10.1358L17.5892 13.1803ZM22.7771 8.5876L22.0396 9.2405L21.0279 8.34557L21.7656 7.69247C22.0447 7.44571 22.4985 7.44576 22.7774 7.69247C23.0563 7.93927 23.0578 8.33933 22.7771 8.5876Z" fill="black"/>
</svg>
