<svg width="61" height="40" viewBox="0 0 61 40" fill="none" xmlns="http://www.w3.org/2000/svg">
<g clip-path="url(#clip0)">
<path d="M28.5795 9L25.6805 9.79544H19.3335V28.9002H20.5111V10.8371H21.8822L20.983 11.084V28.9002L28.5803 30.5675V10.8371H31.9411V28.9002H33.1195V9.79544H28.581L28.5795 9ZM26.8 22.0064C26.4177 22.0064 26.108 21.6736 26.108 21.2637C26.108 20.8538 26.4177 20.521 26.8 20.521C27.1824 20.521 27.4921 20.8525 27.4921 21.2637C27.4913 21.6729 27.1824 22.0064 26.8 22.0064Z" fill="black"/>
<path d="M40.3775 15.118C41.8734 15.118 43.0861 14.0454 43.0861 12.7222C43.0861 11.399 41.8734 10.3264 40.3775 10.3264C38.8816 10.3264 37.6689 11.399 37.6689 12.7222C37.6689 14.0454 38.8816 15.118 40.3775 15.118Z" fill="black"/>
<path d="M36.6229 29.3304L36.603 29.488L36.4463 29.4731L35.5263 29.4907L35.4292 30.2293L36.1916 30.37L37.1093 30.3328L37.1008 30.4634L38.0965 30.5675L38.2058 29.7437L38.2165 29.6558L38.2357 29.5144L38.2494 29.5157L39.4278 26.0932L37.7447 25.9877L36.6229 29.3304Z" fill="black"/>
<path d="M42.8954 29.3163L42.8793 29.2168L42.8892 29.2148L41.9961 26.355L41.8202 22.81L42.1177 22.7721V15.4718H39.4557H38.249L38.3301 19.4794L39.4014 15.718L39.666 15.7958L41.3438 16.1698L41.5288 16.2104L41.4814 16.3748L39.7081 22.5956L39.6614 22.7593L39.4748 22.7173L39.4305 22.6998L39.4259 22.8553L41.0272 22.9223L40.8008 26.1501L40.2862 26.1318L41.2918 29.5435L41.1373 29.5652L40.2678 29.8655L40.4009 30.6001L41.1656 30.4898L42.0381 30.2341L42.0695 30.3626L43.0613 30.2226L42.9129 29.4055L42.8954 29.3163Z" fill="black"/>
<path d="M40.7296 23.0975L39.1888 23.017L39.2201 22.4623L39.4595 22.5178L41.2022 16.393L39.6598 16.0345L38.4004 20.3655L38.4019 20.4304L37.9163 22.1593L38.3246 22.254L37.9507 22.3771L37.9094 22.9568L36.1789 22.8486L36.0068 25.6914L40.5476 25.96L40.7296 23.0975ZM38.8087 22.9284L38.3025 22.9013L38.3193 22.6348L38.8255 22.6612L38.8087 22.9284Z" fill="black"/>
</g>
<defs>
<clipPath id="clip0">
<rect width="24.42" height="21.6" fill="white" transform="translate(19 9)"/>
</clipPath>
</defs>
</svg>
